<?xml version="1.0" encoding="UTF-8" standalone="no"?>
<!DOCTYPE svg PUBLIC "-//W3C//DTD SVG 1.1//EN" "http://www.w3.org/Graphics/SVG/1.1/DTD/svg11.dtd">
<svg width="100%" height="100%" viewBox="0 0 306 306" version="1.1" xmlns="http://www.w3.org/2000/svg" xmlns:xlink="http://www.w3.org/1999/xlink" xml:space="preserve" xmlns:serif="http://www.serif.com/" style="fill-rule:evenodd;clip-rule:evenodd;stroke-linejoin:round;stroke-miterlimit:1.41421;">
    <g id="layer103" transform="matrix(0.920162,0,0,0.920162,-70.5846,-86.2471)">
        <path d="M295.2,411C293.4,409.9 290,407.1 287.7,404.7C282.9,399.9 266.6,378.7 260.6,369.5C258.5,366.2 256.7,363.4 256.6,363.3C256.5,363.2 252.2,365.3 247,368C235.4,373.9 227.6,376.3 219.5,376.3C209.2,376.3 204.4,372.8 202.6,364.4C202,361.6 203.2,356.3 206.6,347.6C207.3,345.7 207.2,345.7 203.8,347.8C194.8,353.3 177.6,358.1 166.4,358.2C154,358.2 147.7,355 143.5,346.6C140,339.6 140,327.7 143.6,315.4C146.3,305.9 157.6,282 166,268.1L171,259.7L167.5,250.8C162.8,238.9 159.2,226.5 157.2,214.8L155.5,205L139.4,205C122.2,205 107.7,206.2 97,208.4C93.4,209.2 90.3,209.6 90,209.3C89.7,209 90.6,208 91.8,206.9C94.8,204.6 105.1,201.5 115,200.1C122.4,199 146.7,197 152.2,197C154.9,197 155,196.9 155,191.3C155.2,167.9 163,149.7 173.5,148.3C179.4,147.6 184.2,149.9 188.7,155.9C190.8,158.6 192.8,160.9 193.1,160.9C193.4,161 194,157.7 194.4,153.8C195.8,137.9 201.3,122.3 208.1,114.5C217.4,103.9 231.3,104.6 245.2,116.2C255.1,124.6 271.3,146.4 282,165.7L286.5,173.8L291.5,174.5C307.1,176.6 330,182.5 341.1,187.4C343.6,188.5 363.5,151.2 368.4,136.3C370.8,129.1 372.5,129.4 371.7,136.8C371,143 368.1,151.9 362.7,164.5C359.7,171.6 351.4,189.4 350.4,191.1C350.2,191.5 353.3,193.7 357.2,196.1C372.6,205.4 383,218.2 383,227.8C383,231.6 382.5,232.8 379.2,236C375.4,239.9 370.1,242 364.3,242C362.5,242 361,242.4 361,242.8C361,243.3 364.1,245.8 367.9,248.4C380.6,257 390.6,268.4 393.8,277.9C395.5,282.6 395.3,292.5 393.5,295.9C391.1,300.6 383.4,306.6 376.2,309.5C363.9,314.5 352.7,316.1 327.3,316.7L304,317.3L294.9,328.2C289.9,334.2 280.9,343.5 274.9,348.8C268.9,354.1 264,358.7 264,359C264,359.4 267.9,366.1 272.6,374C281.4,388.8 292.6,404.6 297.4,408.9C301.9,413.1 300.6,414.3 295.2,411ZM234.5,354.4C237,353.6 241.1,352 243.5,351L247.9,349.1L242.3,338.8C239.3,333.1 236.6,328.3 236.4,328.1C236.2,327.9 232.4,330.2 227.9,333.1C217.5,340 213.9,346.2 217.1,352.1C219.2,356.1 226.7,357.1 234.5,354.4ZM265.7,337.1C275.4,329.8 293.4,311.3 301.8,300C309,290.4 316.1,276.5 318.5,267.5C319.4,264.2 320.4,258.1 320.7,253.9L321.3,246.3L311.9,241.7C288.8,230.4 258.9,220.3 231.4,214.5C226.9,213.5 222.8,212.5 222.3,212.1C221.4,211.5 222,200.6 223,199.6C223.6,199.1 237.7,201.2 251.5,203.9C267.5,207.1 285.4,211.9 309.3,219.4C311.9,220.2 314,220.6 314,220.1C314,218 306.8,208.7 300.2,202.3C296.2,198.3 293.5,195 294.3,195C295.1,195 298.4,196.7 301.7,198.9C307,202.3 312.1,207.6 318.5,216.5L320.6,219.3L326.8,210.6C330.2,205.9 333,201.7 333,201.4C333,200.4 320.1,195.1 309.3,191.7C292.2,186.2 276.1,183.7 258.5,183.7C242.2,183.7 233.4,185.4 222.2,190.5L216.7,193L217.3,205.8C218.5,229.5 223.8,256.6 232.9,284.8L236.8,297.1L231.9,299.5C229.3,300.9 226.4,302 225.7,302C222.1,302 204.7,248.1 199.9,222C198.3,213.2 197.7,212.3 195.8,215.2C193.1,219.3 188.9,231.1 187.8,237.4C186.2,246.3 185,246.5 185,237.8C185,229.9 187.4,220 191.2,212.7C192.3,210.5 193,208.7 192.8,208.5C192.2,207.9 172.6,206.1 172.1,206.6C171.8,206.8 172.2,211.5 172.8,216.8C176,242.2 188,273.9 201,291.1C206,297.8 213.7,304.9 220,308.7L223.5,310.9L232.7,304.7C249.8,293.2 263.4,281.7 283.3,261.8L303.2,242L306.4,243.9C308.2,245 310.4,246.8 311.4,247.9C313.1,249.8 312.8,250.3 301.9,263.7C290.1,278 278.3,290.4 259.5,308L248.5,318.2L257.2,317.7C262.8,317.3 268.9,316.1 274.4,314.2C279.1,312.7 283,311.7 283,312.1C283,313.4 274.7,318.2 269.1,320.1C266,321.2 260,322.4 255.8,322.7C250.7,323.1 248,323.7 248,324.5C248,326.6 255.9,343 256.9,343C257.5,343 261.4,340.3 265.7,337.1ZM192.6,323.9C195.8,323.3 202.3,321.1 206.9,318.9L215.2,315L209.2,311C201.1,305.5 190.3,293.9 183.3,282.8L177.6,273.8L175.3,278.3C168.5,291.9 164.2,306.9 165.4,313.4C167.2,322.9 177.1,326.7 192.6,323.9ZM336.5,301.5C345.8,299.5 353.1,295.9 355.4,291.9C359.1,285.7 355.8,275.3 347.1,265.7C343.5,261.7 331.4,252 330,252C329.6,252 329,255.4 328.6,259.5C327.6,270 323.9,282.4 318.3,293.3C315.7,298.3 313.3,302.9 313.1,303.4C312.6,304.6 327.5,303.4 336.5,301.5ZM357.8,234C360.5,232.3 361,231.5 361,228.2C361,222.3 352.9,212.5 344.4,207.9C342,206.7 341.6,206.7 340.8,208C340.3,208.8 337.5,213.4 334.5,218.2L329.1,226.9L337.8,231.3C347.8,236.4 352.8,237.1 357.8,234ZM195.7,195.5C195.3,194.7 194.8,189.6 194.4,184C193.7,174.2 193.6,173.9 190.3,171C186.5,167.7 183.5,167.2 180.2,169.6C176,172.5 172,183.7 172,192.5L172,195.9L179.8,196.3C184,196.4 189.5,196.7 191.9,196.8C195.3,197 196.1,196.7 195.7,195.5ZM224.1,181C234,176.4 245.1,173.9 258.7,173.3L270.9,172.7L269.5,170.1C266.9,165 252.3,148.4 248,145.6C241.9,141.6 235.6,141 231,144.2C226.3,147.4 222.2,154.4 219.9,163.2C218,170.5 216.2,184 217.2,184C217.5,184 220.6,182.7 224.1,181Z" style="fill:rgb(247,236,20);fill-rule:nonzero;"/>
    </g>
</svg>
