<?xml version="1.0" encoding="UTF-8" standalone="no"?>
<!DOCTYPE svg PUBLIC "-//W3C//DTD SVG 1.1//EN" "http://www.w3.org/Graphics/SVG/1.1/DTD/svg11.dtd">
<svg width="100%" height="100%" viewBox="0 0 177 200" version="1.1" xmlns="http://www.w3.org/2000/svg" xmlns:xlink="http://www.w3.org/1999/xlink" xml:space="preserve" xmlns:serif="http://www.serif.com/" style="fill-rule:evenodd;clip-rule:evenodd;stroke-linejoin:round;stroke-miterlimit:1.41421;">
    <g transform="matrix(1,0,0,1,-11.8,-0.998258)">
        <g transform="matrix(0.849784,0,0,0.849784,14.999,3.21286)">
            <path d="M13.8,196.8C14.9,195 17,191.4 18.5,188.8L21.2,184L176.7,184L187.9,200L99.9,200L11.8,200L13.8,196.8Z" style="fill:rgb(247,236,20);fill-rule:nonzero;"/>
        </g>
        <g transform="matrix(0.849784,0,0,0.849784,14.999,3.21286)">
            <path d="M23,181.3C23,180.8 23.9,179.1 25,177.3C26.8,174.2 27.2,174.1 34.2,173.8L41.5,173.5L41.8,156.7L42,139.9L45.3,138C47,136.9 52,134.8 56.3,133.5C84.8,124.4 128.6,126.1 150.3,137.1L154,139L154,174L161.9,174C169.8,174 169.8,174 171.9,177.4C173.1,179.2 174,181 174,181.4C174,181.7 169.3,182 163.5,182L153,182L125.5,170.6L98,159.2L70.3,170.6L42.7,182L32.8,182C27.4,182 23,181.7 23,181.3ZM55.5,154.4C55.5,145.4 55.2,143.5 54,143.5C52.8,143.5 52.4,145.4 52.2,153.4C51.9,164.1 52.3,166.4 54.3,165.7C55.1,165.5 55.5,162.3 55.5,154.4ZM143.5,154.4C143.5,145.4 143.2,143.5 142,143.5C140.8,143.5 140.4,145.4 140.2,153.4C139.9,164.1 140.3,166.4 142.3,165.7C143.1,165.5 143.5,162.3 143.5,154.4ZM71,149.5C71,140.8 70.7,138.1 69.6,137.7C66.8,136.6 66,139.4 66,149.5C66,159.6 66.8,162.4 69.6,161.3C70.7,160.9 71,158.2 71,149.5ZM130,149.6C130,139.4 129.2,136.6 126.4,137.7C124.5,138.4 124.4,160.6 126.3,161.3C129.2,162.3 130,159.8 130,149.6ZM86,146.6C86,136.4 85.2,133.6 82.4,134.7C80.5,135.4 80.4,157.6 82.3,158.3C85.2,159.3 86,156.8 86,146.6ZM114.8,146.2C115,136.6 114.8,134.9 113.4,134.3C110.8,133.3 110,135.9 110,146.6C110,157 110.3,158.3 113,157.8C114.2,157.5 114.6,155.4 114.8,146.2ZM99.8,145.2C100.1,134.5 100,134 98,134C96.1,134 96,134.6 96,144.8C96,150.8 96.3,156 96.7,156.4C98.7,158.4 99.5,155.5 99.8,145.2Z" style="fill:rgb(247,236,20);fill-rule:nonzero;"/>
        </g>
        <g transform="matrix(0.849784,0,0,0.849784,14.999,3.21286)">
            <path d="M52,181.3C52,180.8 62.4,176.3 75,171.1L98,161.7L120.2,170.9C132.5,176 142.9,180.6 143.5,181.1C144,181.6 126.4,182 98.2,182C72.8,182 52,181.7 52,181.3Z" style="fill:rgb(247,236,20);fill-rule:nonzero;"/>
        </g>
        <g transform="matrix(0.849784,0,0,0.849784,14.999,3.21286)">
            <path d="M154,136.8C143.5,130.1 126.3,126.2 104.5,125.3C88.2,124.7 77,125.7 63,129.2C54.1,131.3 42.8,135.9 41.6,137.9C40,140.4 38,139 38,135.5C38,132.6 38.6,131.7 41.8,129.6C51.4,123.6 73,118.4 92.9,117.4C112.2,116.4 137.6,120.8 151.6,127.6C158.1,130.7 159.2,132 158.8,136.3L158.5,139.6L154,136.8Z" style="fill:rgb(247,236,20);fill-rule:nonzero;"/>
        </g>
        <g transform="matrix(0.849784,0,0,0.849784,14.999,3.21286)">
            <path d="M49,115.7C49,107.1 50,105.7 59.1,101.6C71,96.1 79,94.7 97.5,94.7C116,94.7 124,96.1 135.9,101.6C144.9,105.7 146,107.2 146,115.2C146,118.9 145.7,122 145.4,122C145.1,122 142.4,121.3 139.4,120.4L134,118.9L134,113.4C134,108.7 133.8,108 132,108C130.3,108 130,108.7 130,113.1C130,117.9 129.9,118.2 127.8,117.6C126.5,117.3 124.7,117 123.8,117C122.3,117 122,116 122,110.5C122,105.4 121.7,104 120.5,104C119.3,104 119,105.3 119,110C119,116.4 118.6,116.8 113.3,115.4C111.4,114.9 111.1,114 110.8,108.6C110.6,104 110.1,102.5 109,102.5C107.9,102.5 107.4,104 107.2,108.8L106.9,115L103,115L99,115L99,108C99,102.4 98.7,101 97.5,101C96.3,101 96,102.4 96,108L96,115L92,115L88.1,115L87.8,108.8C87.6,104 87.1,102.5 86,102.5C84.9,102.5 84.4,104.1 84,109L83.5,115.5L79.8,115.8L76.1,116.1L75.8,110.3C75.6,105.9 75.1,104.5 74,104.5C72.8,104.5 72.5,105.8 72.5,110.5C72.5,117 71.9,117.8 66.8,117.9C64.1,118 64,117.8 64,113C64,109.2 63.6,108 62.5,108C61.3,108 61,109.3 61,113.9L61,119.8L56.3,121.1C53.6,121.8 50.9,122.6 50.3,122.8C49.3,123 49,121.2 49,115.7Z" style="fill:rgb(247,236,20);fill-rule:nonzero;"/>
        </g>
        <g transform="matrix(0.849784,0,0,0.849784,14.999,3.21286)">
            <path d="M46,103.3C46,98.3 49,95.3 58,91.1C70.6,85.2 78.7,83.6 97,83.6C111.9,83.5 114.4,83.8 123.2,86.2C133.8,89.2 141,92.4 145.9,96.5C148.4,98.7 149,99.9 149,103.1C149,105.2 148.8,107 148.5,107C148.2,107 146,105.5 143.5,103.6C136.2,98 123.3,93.8 107.6,91.9C87.8,89.5 61.9,95.1 49.5,104.6L46,107.2L46,103.3Z" style="fill:rgb(247,236,20);fill-rule:nonzero;"/>
        </g>
        <g transform="matrix(0.849784,0,0,0.849784,14.999,3.21286)">
            <path d="M61.3,83.3C62.9,73.4 69.9,61 77.9,53.7C94.3,39 117,46.5 128.4,70.3C131.6,77 134.5,85.8 133.8,86.5C133.6,86.7 129.8,85.8 125.3,84.5C113.7,81.1 101.2,79.6 91.2,80.4C83.8,81 68,84.4 62.6,86.6C60.9,87.3 60.7,87 61.3,83.3Z" style="fill:rgb(247,236,20);fill-rule:nonzero;"/>
        </g>
        <g transform="matrix(0.849784,0,0,0.849784,15.999,3.21286)">
            <path d="M103.7,44.4C103.4,44.1 100.2,43.8 96.6,43.8L90,43.9L90,35.4L90,26.9L93.5,25.4C96.3,24.3 97.9,24.2 101,25L105,26.1L105,35.5C105,44.9 104.9,45.6 103.7,44.4Z" style="fill:rgb(247,236,20);fill-rule:nonzero;"/>
        </g>
        <g transform="matrix(0.849784,0,0,0.849784,15.999,3.21286)">
            <path d="M94.6,14.3C95.4,4.2 96.1,1.1 97.5,1C98.7,0.9 99.6,5.1 100.4,15.3L101,23L97.4,23L93.9,23L94.6,14.3Z" style="fill:rgb(247,236,20);fill-rule:nonzero;"/>
        </g>
    </g>
</svg>
