<?xml version="1.0" encoding="UTF-8" standalone="no"?>
<!DOCTYPE svg PUBLIC "-//W3C//DTD SVG 1.1//EN" "http://www.w3.org/Graphics/SVG/1.1/DTD/svg11.dtd">
<svg width="100%" height="100%" viewBox="0 0 183 184" version="1.1" xmlns="http://www.w3.org/2000/svg" xmlns:xlink="http://www.w3.org/1999/xlink" xml:space="preserve" xmlns:serif="http://www.serif.com/" style="fill-rule:evenodd;clip-rule:evenodd;stroke-linejoin:round;stroke-miterlimit:1.41421;">
    <g transform="matrix(1,0,0,1,-21.5962,-19.8)">
        <g>
            <path d="M115,23.2C116.1,25 120.9,33.1 125.7,41.1C134.4,55.6 134.4,55.6 141.1,59.2L147.9,62.8L158.6,58.9C164.5,56.7 169.4,55.1 169.6,55.3C169.8,55.5 168.2,60.5 166.1,66.3L162.1,77L165.7,83.8L169.4,90.6L186.7,100.9C196.3,106.6 204.2,111.6 204.4,111.9C204.6,112.2 196.8,117.2 187.1,122.9L169.3,133.4L165.8,140.3L162.2,147.2L166.1,157.8C168.2,163.6 169.8,168.6 169.6,168.8C169.4,168.9 164.5,167.3 158.6,165.2L148,161.3L141.2,164.8L134.5,168.3L124.1,185.7C118.4,195.2 113.4,203.2 113.1,203.4C112.8,203.6 107.8,195.9 102,186.2C96.2,176.6 90.8,168.4 90,167.9C89.2,167.5 86.2,165.8 83.4,164.2L78.2,161.2L67.5,165.1C61.6,167.3 56.5,168.9 56.3,168.7C56.1,168.5 57.7,163.5 59.8,157.7L63.7,147.1L60.2,140.2L56.7,133.4L38.9,123C29.2,117.2 21.4,112.2 21.6,111.9C21.8,111.6 29.8,106.6 39.3,100.9L56.7,90.5L63.7,76.9L59.8,66.3C57.7,60.5 56.1,55.6 56.3,55.4C56.4,55.2 61.4,56.8 67.2,58.9L77.8,62.8L84.7,59.2L91.6,55.7L102.2,37.7L112.9,19.8L115,23.2ZM123.1,160.6C158.4,153.1 174.2,111.1 152.5,82.2C130.6,53.1 85.1,57.2 68.7,89.8C54.3,118.7 70.9,153.7 102.4,160.5C110.4,162.3 115.1,162.3 123.1,160.6Z" style="fill:rgb(247,236,20);fill-rule:nonzero;"/>
            <path d="M100.5,150.5C100,150.4 96.6,149.4 93,148.4C81.7,145.3 81.4,144 91.3,141C95.2,139.7 99.2,138.2 100,137.5C100.8,136.8 103.5,135.6 106,135C112.6,133.2 117,130.7 121.5,126.1C130.1,117.5 129.8,118 129.6,108.2C129.4,99.8 129.2,99 126.2,95.2C124.4,93 123,90.7 123,90.1C123,88.7 110.2,88.6 106.5,90C101.7,91.8 97,96.3 96.4,99.8C95.6,104.1 97.5,110.7 100,112C102.8,113.5 105.3,112.2 104.5,109.6C102.6,103.7 102.7,103.1 105.4,102.4C106.8,102.1 109.7,102.2 111.7,102.7C114.9,103.4 115.9,104.3 117.7,108C118.9,110.5 119.9,113.6 120,115C120,118.8 116.5,123.9 113.3,124.5C111.8,124.9 108.9,125.7 107,126.3C99.4,128.9 95.4,126.8 86.4,115.3C82.8,110.8 82.1,109 81.1,102.6C80.5,98.4 79.9,94.7 79.8,94.2C79.4,93.2 91.2,81.5 96.5,77.5C99.7,75.1 101.9,74.4 107.4,73.9C113.6,73.3 114.9,73.6 122.3,76.6C132.8,81 141.5,89.1 142.6,95.7C142.9,97.3 143.7,100.8 144.5,103.5C145.2,106.3 145.9,111.4 145.9,115C146,123.8 140.8,134.7 133.4,141.1C128.2,145.7 124.2,147.2 109.4,149.9C103.3,151 102.3,151.1 100.5,150.5Z" style="fill:rgb(247,236,20);fill-rule:nonzero;"/>
        </g>
    </g>
</svg>
