<svg width="100%" height="100%" viewBox="0 0 760 835" version="1.1" xmlns="http://www.w3.org/2000/svg" xmlns:xlink="http://www.w3.org/1999/xlink" xml:space="preserve" xmlns:serif="http://www.serif.com/" style="fill-rule:evenodd;clip-rule:evenodd;stroke-linejoin:round;stroke-miterlimit:1.41421;">
    <g transform="matrix(1.39931,0,0,1.39931,-2927.64,-5578.23)">
        <g transform="matrix(0.937498,0,0,0.937498,1446.08,3784.34)">
            <path d="M971.179,359.376L961.451,379.237L958.686,356.893L938.469,352.871L956.977,343.075L954.211,320.73L968.414,337.031L986.921,327.235L977.193,347.097L991.396,363.389L971.179,359.376ZM1047,227.843L1047.91,227.183C890.629,218.516 884.557,383.813 884.557,383.813C883.647,488.122 968.667,528.443 968.667,528.443C930.102,483.788 932.53,469.129 929.191,437.136C925.853,405.143 945.59,369.484 945.59,369.484C948.625,365.819 949.535,371.813 949.535,371.813C942.247,382.815 925.853,422.138 937.088,466.793C948.324,511.448 973.826,525.777 973.826,525.777C960.161,512.446 958.041,493.115 957.732,482.451C957.431,471.787 962.899,437.466 996.297,419.472C1029.7,401.469 1030,383.476 1036.68,357.153C1043.36,330.822 1028.48,309.832 1023.93,300.496C1019.37,291.169 1016.64,278.169 1019.37,261.504C1022.11,244.847 1047,227.843 1047,227.843Z" style="fill:rgb(247,236,20);fill-rule:nonzero;"/>
        </g>
        <g transform="matrix(0.937498,0,0,0.937498,1446.08,3784.34)">
            <path d="M1127.32,468.843L1107.04,465.247L1125.37,455.069L1122.22,432.794L1136.71,448.781L1155.04,438.604L1145.65,458.664L1160.14,474.661L1139.85,471.065L1130.47,491.127L1127.32,468.843ZM1265.37,504.457L1266.25,505.178C1222.24,339.22 1077.94,387.001 1077.94,387.001C987.835,420.184 980.932,521.548 980.932,521.548C1006.77,466.949 1020.19,464.665 1046.64,450.735C1073.09,436.806 1110.25,445.611 1110.25,445.611C1114.4,447.557 1109.53,450.466 1109.53,450.466C1097.68,446.506 1058.45,442.364 1023.68,468.634C988.907,494.896 984.916,526.037 984.916,526.037C991.922,507.506 1007.87,498.969 1016.95,495.165C1026.03,491.361 1057.37,485.803 1083.8,514.557C1110.22,543.311 1125.81,537.735 1150.67,536.051C1175.52,534.366 1188.73,512.064 1195.27,504.292C1201.82,496.511 1212.11,489.425 1227.35,486.811C1242.59,484.188 1265.37,504.457 1265.37,504.457Z" style="fill:rgb(247,236,20);fill-rule:nonzero;"/>
        </g>
        <g transform="matrix(0.937498,0,0,0.937498,1446.08,3784.34)">
            <path d="M1081.23,666.759L1078.35,644.432L1092.63,660.637L1111.09,650.736L1101.46,670.649L1115.75,686.863L1095.51,682.964L1085.88,702.886L1083,680.559L1062.77,676.659L1081.23,666.759ZM1091.11,822.026L1090.73,823.155C1222.14,727.897 1137.84,590.763 1137.84,590.763C1082.28,506.116 992.017,528.895 992.017,528.895C1047.19,539.812 1053.14,553.202 1073.1,576.807C1093.05,600.419 1096.39,641.974 1096.39,641.974C1095.92,646.906 1091.95,642.669 1091.95,642.669C1091.89,629.069 1083.88,586.725 1050.73,558.04C1017.58,529.364 989.295,534.4 989.295,534.4C1007.5,536.26 1019.64,550.449 1025.64,558.847C1031.64,567.236 1045.76,598.448 1028.56,634.661C1011.36,670.875 1020.82,685.569 1029.65,711.128C1038.47,736.677 1061.79,743.928 1070.49,748.487C1079.2,753.038 1088.42,761.74 1095.2,776.938C1101.99,792.144 1091.11,822.026 1091.11,822.026Z" style="fill:rgb(247,236,20);fill-rule:nonzero;"/>
        </g>
        <g transform="matrix(0.937498,0,0,0.937498,1446.08,3784.34)">
            <path d="M893.446,680.688L911.926,670.832L902.257,690.728L916.507,706.977L896.279,703.024L886.606,722.921L883.777,700.585L863.549,696.642L882.025,686.785L879.196,664.449L893.446,680.688ZM761.837,738.657L760.746,738.613C883.679,846.646 976.722,716.503 976.722,716.503C1033.07,632.49 985.616,545.195 985.616,545.195C993.085,606.177 983.297,616.503 968.952,644.597C954.603,672.682 919.59,688.931 919.59,688.931C915.17,689.955 917.631,684.501 917.631,684.501C929.405,680.264 963.663,658.899 978.36,615.469C993.054,572.048 980.014,544.041 980.014,544.041C983.986,563.624 975.404,580.671 969.964,589.512C964.525,598.353 941.796,622.677 905.113,615.825C868.435,608.974 858.596,623.372 839.143,640.428C819.69,657.493 820.564,684.076 819.283,694.566C818,705.057 813.289,717.354 802.191,729.112C791.094,740.862 761.837,738.657 761.837,738.657Z" style="fill:rgb(247,236,20);fill-rule:nonzero;"/>
        </g>
        <g transform="matrix(0.937498,0,0,0.937498,1446.08,3784.34)">
            <path d="M826.978,488.218L840.915,504.778L820.77,500.367L810.721,520.037L808.316,497.648L788.167,493.237L806.833,483.806L804.427,461.409L818.364,477.979L837.026,468.547L826.978,488.218ZM738.377,366.688L738.1,365.524C679.401,525.916 819.813,586.063 819.813,586.063C909.371,620.983 971.804,545.898 971.804,545.898C920.772,571.361 908.936,564.066 880.284,557.11C851.637,550.154 827.349,518.057 827.349,518.057C825.182,513.715 830.645,514.722 830.645,514.722C837.746,525.873 866.279,555.695 908.405,558.578C950.535,561.47 971.187,539.672 971.187,539.672C955.255,549.512 937.911,545.421 928.625,542.26C919.34,539.099 891.552,522.251 886.931,481.73C882.306,441.209 866.904,435.025 846.402,419.524C825.897,404.014 802.967,412.611 793.444,414.296C783.921,415.989 771.835,414.592 758.372,406.324C744.909,398.065 738.377,366.688 738.377,366.688Z" style="fill:rgb(247,236,20);fill-rule:nonzero;"/>
        </g>
    </g>
</svg>
