<?xml version="1.0" encoding="UTF-8" standalone="no"?>
<!DOCTYPE svg PUBLIC "-//W3C//DTD SVG 1.1//EN" "http://www.w3.org/Graphics/SVG/1.1/DTD/svg11.dtd">
<svg width="100%" height="100%" viewBox="0 0 1822 2321" version="1.1" xmlns="http://www.w3.org/2000/svg" xmlns:xlink="http://www.w3.org/1999/xlink" xml:space="preserve" xmlns:serif="http://www.serif.com/" style="fill-rule:evenodd;clip-rule:evenodd;stroke-linejoin:round;stroke-miterlimit:1.41421;">
    <g id="mei" transform="matrix(0.855508,0,0,0.855508,-992.337,-676.539)">
        <path id="jacket" d="M2738.16,2553.87C2795.05,2485.24 2832.89,2401 2858.49,2314.09C2858.77,2313.16 2859.04,2312.22 2859.31,2311.29L2861.31,2310.27C2867.12,2306.26 2867.13,2306.25 2872.34,2301.49L2876.01,2297.1C2877.04,2297.87 2878.5,2298.35 2880.09,2298.35C2883.51,2298.35 2889.51,2302.2 2894.23,2307.34C2901.94,2315.91 2901.94,2316.34 2893.8,2322.34C2889.51,2325.77 2883.94,2328.34 2881.8,2328.34C2879.66,2328.34 2882.66,2332.19 2888.66,2336.91C2894.66,2341.62 2900.65,2345.48 2902.37,2345.48C2904.08,2345.48 2910.08,2349.33 2916.08,2354.05C2922.08,2358.76 2930.64,2362.61 2934.93,2362.61C2939.21,2362.61 2944.36,2365.18 2946.07,2368.18C2947.78,2371.61 2953.35,2375.04 2958.07,2376.75C3005.63,2390.89 3039.05,2414.89 3084.46,2468.01C3105.46,2492.87 3123.02,2515.15 3123.02,2517.72C3123.02,2520.29 3117.45,2521.14 3110.17,2520.29C3095.6,2518.14 3093.89,2523.72 3103.32,2541.71C3108.46,2551.14 3132.02,2611.98 3133.74,2619.69C3134.16,2620.98 3135.88,2629.55 3137.59,2638.97C3139.31,2648.4 3141.45,2658.68 3142.73,2661.68C3143.59,2664.68 3144.45,2667.68 3144.88,2668.96C3155.59,2704.95 3161.16,2799.22 3153.44,2818.5C3150.87,2825.78 3149.16,2824.92 3141.45,2812.07L3132.02,2797.93L3127.74,2808.21C3125.6,2814.21 3121.31,2838.2 3118.74,2861.77C3114.88,2899.05 3111.45,2909.76 3094.32,2944.46C3083.61,2966.32 3072.89,2985.17 3071.18,2986.45C3069.04,2987.74 3067.32,2977.45 3067.32,2964.17L3067.32,2939.75L3049.33,2966.74C3039.05,2981.74 3028.76,2998.02 3025.76,3002.73C3018.91,3014.3 2967.92,3065.29 2963.21,3065.29C2961.49,3065.29 2954.64,3070.86 2948.21,3077.29C2931.07,3095.28 2892.08,3121.85 2886.94,3118.42C2883.94,3116.7 2884.8,3113.28 2888.66,3108.99C2894.66,3102.14 2917.36,3055.43 2917.36,3050.29C2917.36,3047.72 2910.94,3052.01 2851.81,3092.28C2831.67,3105.56 2814.53,3116.7 2813.25,3116.7C2810.25,3116.7 2763.12,3145.41 2754.98,3152.27C2751.12,3155.69 2737.41,3164.26 2724.56,3171.97C2711.7,3179.26 2697.99,3187.4 2694.56,3189.54C2691.14,3191.68 2671,3200.25 2649.58,3208.82C2628.58,3217.39 2606.3,3226.39 2600.3,3229.39C2594.3,3231.96 2588.73,3234.1 2587.45,3234.53C2583.59,3235.82 2560.03,3246.1 2552.32,3249.95C2543.32,3254.67 2531.75,3255.1 2531.75,3250.81C2531.75,3249.53 2534.75,3244.81 2538.18,3240.96C2542.03,3236.67 2543.75,3230.67 2542.03,3226.82C2539.89,3221.25 2536.46,3222.11 2518.47,3232.82C2506.47,3239.67 2495.76,3245.24 2493.62,3245.24C2491.9,3245.24 2476.48,3252.1 2459.34,3260.24C2442.63,3268.38 2426.78,3275.23 2424.2,3275.23C2421.64,3275.23 2411.35,3279.95 2400.64,3285.95C2390.36,3291.52 2381.79,3295.37 2381.79,3294.09C2381.79,3292.8 2372.79,3296.66 2361.65,3302.23C2306.38,3330.93 2292.67,3335.22 2260.53,3334.79C2243.82,3334.36 2212.55,3331.79 2191.12,3328.79C2149.99,3323.22 2066.01,3302.23 2057.44,3295.8C2054.44,3293.66 2051.45,3293.66 2049.73,3296.23C2046.73,3301.8 2059.59,3322.37 2066.01,3322.37C2069.01,3322.37 2069.01,3324.08 2065.58,3327.51C2062.16,3330.93 2057.87,3331.36 2051.02,3327.93C2045.45,3325.36 2033.45,3319.79 2024.02,3315.94C2006.46,3308.23 1944.33,3271.38 1940.47,3266.24C1939.19,3264.95 1927.62,3257.24 1914.77,3249.1C1901.91,3241.39 1890.34,3233.67 1889.06,3231.53C1887.77,3229.82 1878.78,3223.82 1868.92,3218.68C1832.93,3198.11 1796.51,3175.4 1788.37,3168.12C1778.94,3159.55 1712.53,3125.27 1704.82,3125.27C1702.68,3125.27 1697.11,3123.56 1692.82,3121.42C1679.97,3114.13 1637.12,3095.28 1634.13,3095.28C1632.41,3095.28 1625.13,3092.71 1617.84,3089.28C1570.71,3067.86 1554,3061 1550.15,3061C1548.01,3061 1536.44,3056.29 1524.87,3050.29C1512.87,3044.29 1503.44,3040.87 1503.02,3042.58C1502.59,3044.72 1502.16,3049.86 1501.73,3054.15C1501.3,3062.72 1490.59,3069.57 1490.59,3061.43C1490.59,3059.29 1480.31,3050.29 1468.31,3042.15C1435.75,3020.3 1430.61,3015.16 1370.62,2943.18C1321.35,2884.05 1322.63,2884.91 1309.78,2896.9C1297.36,2908.04 1292.64,2898.62 1292.21,2859.2C1290.93,2805.64 1299.5,2750.8 1314.92,2716.09C1318.78,2706.67 1324.35,2691.67 1325.63,2688.24C1325.63,2686.96 1330.35,2676.68 1335.49,2665.11C1340.63,2653.54 1344.91,2642.83 1344.91,2640.68C1344.91,2638.54 1347.06,2636.83 1349.2,2636.83C1351.77,2636.83 1353.48,2634.69 1353.48,2632.12C1353.48,2628.69 1347.49,2627.83 1336.35,2629.55C1316.21,2632.12 1314.07,2626.12 1329.92,2611.12C1335.92,2605.55 1340.63,2599.12 1340.63,2597.41C1340.63,2584.56 1402.76,2514.72 1422.89,2504.43C1437.03,2497.15 1432.75,2488.15 1414.33,2485.58C1403.18,2484.3 1404.9,2482.16 1441.75,2445.74C1476.84,2411.37 1521.92,2379.5 1568.19,2356.52C1574.86,2367.17 1585.4,2375.32 1597.43,2378.98C1599.66,2379.66 1601.97,2380.04 1604.24,2380.57L1611.2,2381.24L1612.89,2381.17L1613.13,2381.64C1656.47,2467.84 1719.06,2540 1791.04,2600.09C1797.7,2615.89 1804.45,2631.67 1810.99,2647.52C1820.38,2670.32 1830.67,2692.76 1835.59,2716.42C1836.09,2718.83 1836.7,2721.11 1836.39,2724.14C1836.32,2724.84 1836.25,2725.53 1836.19,2726.22C1832.6,2768.19 1847.28,2812.53 1876.32,2843.51C1884.04,2851.74 1893.26,2858.71 1900.22,2867.71C1919.46,2892.61 1929.53,2922.15 1946.88,2946.95C1949.86,2951.21 1954.03,2955.72 1954.03,2955.72C1958.82,2960.55 1963.02,2966.05 1967.34,2971.37C1998.91,3010.25 2028.68,3049.38 2059.84,3087.68C2072.05,3102.68 2084.13,3117.84 2097.63,3131.73C2099.91,3134.07 2102.79,3136.76 2102.79,3136.76C2106.95,3140.51 2110.95,3144.45 2114.87,3148.45C2140.62,3174.73 2165.13,3203.04 2188.64,3231.98C2197.82,3243.28 2205.94,3255.67 2216.07,3266.18C2219.31,3269.51 2220.14,3270.12 2224.16,3271.68C2229.82,3273.88 2236.35,3273.56 2241.78,3270.82C2245.41,3268.99 2245.97,3267.99 2248.8,3265.17L2248.94,3265.01C2251.62,3261.74 2254.36,3258.51 2257.12,3255.31C2275.43,3234.09 2294.63,3212.04 2318.05,3196.3C2324.6,3191.89 2332.16,3188.8 2339.19,3184.82C2379.1,3162.23 2416.18,3135.35 2452.17,3107.04C2463.87,3097.84 2475.74,3088.71 2484.45,3076.7C2499.59,3055.83 2511.09,3032.82 2524.33,3010.93C2528.83,3003.49 2532.96,2995.71 2539.11,2989.77C2555.03,2974.39 2571.55,2960.13 2586.55,2944.11C2614.63,2914.14 2640.02,2879.69 2651.06,2839.98C2652.79,2833.75 2653.96,2827.38 2655.16,2821C2665.04,2768.61 2679.79,2717.75 2695.65,2667.23C2702.83,2644.38 2709.82,2621.45 2719.33,2599.44C2725.86,2584.33 2732.23,2569.17 2738.16,2553.87ZM2663.66,2625.29C2643.26,2685.95 2624.68,2748.97 2612.56,2812.96C2609.68,2828.3 2604.78,2843.61 2597.29,2857.58C2581,2887.99 2556.91,2913.94 2531.48,2937.82C2519.76,2948.83 2506.81,2958.97 2497.66,2972.17C2481.06,2996.14 2468.37,3023.1 2452,3047.46C2447.03,3054.85 2441.07,3060.19 2434.73,3065.43C2400.45,3093.78 2363.53,3119.78 2325.08,3142.86C2317.01,3147.7 2308.44,3151.55 2300.4,3156.21C2273.88,3171.62 2253.01,3194.71 2232.43,3217.73L2232.24,3217.46C2231.05,3215.77 2229.8,3214.12 2228.53,3212.49C2203.57,3180.27 2175.61,3148.62 2146.67,3118.97C2137.71,3109.78 2127.99,3101.1 2119.39,3091.3C2077.07,3043.04 2038.55,2989.67 1997.24,2939.44C1991.11,2931.99 1984.15,2925.32 1979.11,2916.98C1960.28,2885.79 1946.72,2850.86 1921,2825.93C1918.45,2823.46 1915.45,2820.9 1915.45,2820.9C1890.34,2799.84 1876.16,2763.38 1879.48,2728.9C1880.89,2714.84 1876.79,2700.35 1872.19,2686.38C1876.73,2688.88 1879.81,2689.14 1881.78,2687.39C1882.2,2686.53 1887.35,2689.53 1893.34,2693.81C1898.91,2697.67 1907.48,2701.1 1911.77,2701.1C1916.05,2701.1 1927.62,2704.95 1937.05,2709.67C1946.9,2714.38 1957.61,2718.24 1960.61,2718.24C1963.61,2718.24 1966.18,2720.38 1966.18,2722.52C1966.18,2725.09 1968.32,2726.8 1970.47,2726.8C1976.47,2726.8 2004.74,2745.23 2004.74,2749.51C2004.74,2751.23 2000.89,2756.37 1995.75,2761.51C1991.03,2766.22 1987.61,2770.94 1988.46,2771.79C1989.32,2772.65 2002.17,2773.94 2017.17,2774.36C2048.87,2775.65 2069.01,2781.65 2083.15,2794.07C2088.72,2798.79 2098.58,2803.93 2104.57,2805.64C2120,2809.5 2119.14,2816.35 2102.86,2821.92L2090.01,2826.21L2136.71,2857.06C2188.12,2890.91 2224.97,2911.04 2234.4,2911.04C2241.68,2911.04 2308.95,2866.05 2345.37,2837.35C2359.51,2825.78 2373.22,2816.78 2375.79,2816.78C2380.07,2816.78 2386.07,2807.78 2386.07,2801.79C2386.07,2801.36 2380.93,2799.22 2374.5,2797.5C2362.94,2794.93 2362.51,2794.5 2371.08,2788.08C2379.22,2782.08 2453.77,2745.66 2492.76,2728.95C2515.62,2719.08 2553.44,2683.06 2579.68,2650.51C2590.82,2655.8 2603.66,2657.34 2615.6,2654.12C2617.88,2653.51 2620.07,2652.59 2622.31,2651.82L2628.64,2648.64C2640.76,2641.48 2652.44,2633.68 2663.66,2625.29Z" style="fill:rgb(247,236,20);fill-rule:nonzero;"/>
        <g id="scarf" transform="matrix(0.516192,0,0,0.516192,1397.28,887.693)">
            <path d="M1658.98,2780.99C1658.98,2780.99 1487.31,2815.32 1408.84,2852.11C1330.36,2888.9 1075.31,2942.85 1016.45,2942.85C957.59,2942.85 768.753,2972.28 773.658,3082.64C778.562,3193 945.327,3499.55 937.97,3565.77C930.613,3631.98 957.59,3720.27 1016.45,3769.32C1075.31,3818.37 1112.09,3928.73 1141.52,3958.16C1170.95,3987.59 1364.69,4245.09 1411.29,4286.78C1457.88,4328.47 1570.7,4460.9 1587.86,4485.43C1605.03,4509.95 1619.75,4524.67 1619.75,4524.67C1619.75,4524.67 1715.39,4406.95 1774.25,4379.97C1833.11,4353 2014.59,4223.02 2041.56,4191.14C2068.54,4159.26 2122.49,4051.35 2147.02,4024.37C2171.54,3997.39 2326.04,3879.68 2350.57,3742.34C2375.09,3605.01 2446.21,3379.38 2470.74,3322.98C2495.26,3266.57 2559.03,3109.62 2549.22,3072.83C2539.41,3036.04 2424.14,2969.83 2316.24,2950.21C2208.33,2930.59 1982.7,2901.16 1931.2,2866.83C1879.7,2832.49 1727.65,2780.99 1658.98,2780.99Z" style="fill:rgb(247,236,20);"/>
        </g>
        <g id="face" transform="matrix(2.2794,0,0,2.2794,-10014.7,802.091)">
            <path d="M5194.4,527.6C5196.7,539.2 5195.7,538.1 5191.1,616.3C5185.6,708.5 5231.1,774.3 5231.1,774.3C5210.4,769 5199.8,753.6 5199.8,753.6L5219.1,790.3C5109.1,713 5103.8,626.3 5103.8,626.3C5097.8,646.3 5101.1,669.8 5101.1,669.8C5019.1,438.7 5150.1,335.3 5150.1,335.3C5177.1,258.9 5249.6,227.3 5249.6,227.3C5207.6,165.8 5240.6,105.8 5240.6,105.8C5240.6,105.8 5258.1,160.9 5299.1,181.9C5299.1,181.9 5268.1,135.9 5290.1,68.9C5290.1,68.9 5313.1,104.9 5330.1,116.9C5330.1,116.9 5457.1,92.9 5468.1,189.9C5468.1,189.9 5583.1,213.9 5614.1,371.9C5614.1,371.9 5737.8,503.7 5637.1,641.9C5637.1,641.9 5645.8,616.2 5639.8,583.6C5639.8,583.6 5629.1,734.9 5535.1,790.3C5535.1,790.3 5605.8,651 5571.8,533.6C5571.8,533.6 5565.8,553.6 5561.1,564.9C5561.1,564.9 5559.8,492.5 5539.1,448C5539.1,448 5525.8,525.2 5384.4,505.2C5384.4,505.2 5433.1,493.9 5456.1,451.5C5456.1,451.5 5365.8,527.5 5253.8,518.8C5253.8,518.8 5282.5,506.8 5298.5,474.8C5298.5,474.8 5278.2,498.5 5236.5,512.1C5202,523.6 5194.4,527.6 5194.4,527.6" style="fill:rgb(247,236,20);fill-rule:nonzero;"/>
            <path d="M5609.1,193.6L5615.1,294.9C5615.1,294.9 5627.8,301.6 5643.8,294.9L5640.5,199.6C5640.4,199.6 5625.1,184.9 5609.1,193.6Z" style="fill:rgb(247,236,20);fill-rule:nonzero;"/>
            <circle cx="5679.8" cy="244.4" r="38.9" style="fill:rgb(247,236,20);"/>
            <path d="M5577.6,543.4C5577.6,543.4 5564.7,542.4 5555.2,544.1C5553.9,538.3 5548.8,533.9 5542.5,533.9L5423.1,533.9C5410,533.9 5399.1,542.2 5394.9,553.6L5379.1,553.6L5363.3,553.6C5359.1,542.2 5348.2,533.9 5335.1,533.9L5215.7,533.9C5209.5,533.9 5204.4,538.2 5203,543.9C5194.7,542.4 5184.5,543.4 5184.5,543.4L5179,577.9C5199.7,570.4 5206.3,582.5 5208.3,591L5209.3,598.2L5211,610.8C5213.9,635.5 5236.5,654.3 5261.4,654.8L5324.1,656.2C5334.8,656.4 5344.5,651.1 5350.2,642.7C5350.2,642.7 5362.1,629 5365,608.7C5368.3,586.2 5379,588.2 5379,588.2C5379,588.2 5389.7,586.2 5393,608.7C5396,628.9 5407.8,642.6 5407.8,642.7C5413.5,651.1 5423.2,656.4 5433.9,656.2L5496.6,654.8C5521.5,654.3 5544.1,635.5 5547,610.8L5548.7,598.2L5549.5,592C5551.5,583.5 5558.6,570.1 5583,577.9L5577.6,543.4ZM5529.1,568.5L5525.7,606.5C5524.2,622.6 5510.8,634.9 5494.6,634.9L5440.8,634.9C5431.8,634.9 5424.1,628.3 5422.7,619.4L5415,570C5413.7,561.4 5420.3,553.7 5429,553.7L5515.5,553.7C5523.5,553.6 5529.8,560.5 5529.1,568.5Z" style="fill:rgb(247,236,20);fill-rule:nonzero;"/>
            <g>
                <path d="M5555.2,233.1C5563.1,240.7 5572.7,251.6 5580.4,265.4L5627.1,264L5627.1,229L5555.2,233.1Z" style="fill:rgb(247,236,20);fill-rule:nonzero;"/>
                <path d="M5195.5,253.8L5053.1,262L5053.1,281L5175.1,277.4C5179.7,270.6 5186.6,261.8 5195.5,253.8Z" style="fill:rgb(247,236,20);fill-rule:nonzero;"/>
            </g>
        </g>
    </g>
</svg>
