<?xml version="1.0" encoding="UTF-8" standalone="no"?>
<!DOCTYPE svg PUBLIC "-//W3C//DTD SVG 1.1//EN" "http://www.w3.org/Graphics/SVG/1.1/DTD/svg11.dtd">
<svg width="100%" height="100%" viewBox="0 0 500 430" version="1.1" xmlns="http://www.w3.org/2000/svg" xmlns:xlink="http://www.w3.org/1999/xlink" xml:space="preserve" xmlns:serif="http://www.serif.com/" style="fill-rule:evenodd;clip-rule:evenodd;stroke-linejoin:round;stroke-miterlimit:1.41421;">
    <g id="layer101" transform="matrix(0.846934,0,0,0.846934,39.9603,-3.5029)">
        <path d="M8,419.3C8,419 25.8,388.4 47.6,351.4L87.2,284L167.1,283.8L247,283.5L206.8,216C184.8,178.9 166.5,147.7 166.2,146.8C165.8,145.1 246.5,6 248,6C248.4,6 267.1,37.1 289.5,75.1C326.9,138.5 330.2,144.5 329.3,146.9C328.7,148.3 310.4,179.6 288.6,216.5L249,283.5L328.9,283.8L408.8,284L448.4,351.4C470.2,388.4 488,419 488,419.3C488,419.7 451.8,420 407.6,420L327.2,420L287.9,353C266.2,316.2 248.3,286 248,286C247.7,286 229.8,316.2 208.1,353L168.8,420L88.4,420C44.2,420 8,419.7 8,419.3Z" style="fill:rgb(247,236,20);fill-rule:nonzero;"/>
    </g>
</svg>
