<?xml version="1.0" encoding="UTF-8" standalone="no"?>
<!DOCTYPE svg PUBLIC "-//W3C//DTD SVG 1.1//EN" "http://www.w3.org/Graphics/SVG/1.1/DTD/svg11.dtd">
<svg width="100%" height="100%" viewBox="0 0 511 513" version="1.1" xmlns="http://www.w3.org/2000/svg" xmlns:xlink="http://www.w3.org/1999/xlink" xml:space="preserve" xmlns:serif="http://www.serif.com/" style="fill-rule:evenodd;clip-rule:evenodd;stroke-linejoin:round;stroke-miterlimit:1.41421;">
    <g transform="matrix(1,0,0,1,-0.5,0.1)">
        <g transform="matrix(0.741399,0,0,0.741399,66.2018,66.2018)">
            <path d="M95.9,511C80.5,508.4 59.1,499.5 47.5,490.8C25.8,474.7 10.5,452.5 3.3,426.5L0.5,416.5L0.5,256L0.5,95.5L3.3,85.5C14.8,44.3 44.4,14.9 86.5,2.9C94.5,0.6 94.8,0.6 172.8,0.3L251,-0.1L251,512L175.8,511.9C134.4,511.8 98.4,511.4 95.9,511ZM221,256L221,30L169.3,30C140.8,30 113.1,30.5 107.7,31C87.7,33 69.8,41.4 55.6,55.6C41.2,70 32.8,87.9 31,108.3C29.8,121.6 29.8,390.4 31,403.7C33.6,432.3 49.5,456.8 75,471.3C82.1,475.4 97.5,480.1 106.4,480.9C110.8,481.4 138.5,481.8 167.8,481.9L221,482L221,256Z" style="fill:rgb(247,236,20);fill-rule:nonzero;"/>
        </g>
        <g transform="matrix(0.741399,0,0,0.741399,66.2018,66.2018)">
            <path d="M109.5,209.5C89.1,203.9 71.9,186.5 66.5,166C64.6,158.9 64.6,142.1 66.5,135C72,114.1 89.2,97 110,91.5C117.1,89.6 133.9,89.6 141,91.5C162,97.1 178.9,114 184.5,135C186.4,142.1 186.4,158.9 184.5,166C178.9,187 162,203.9 141,209.5C134.1,211.3 116.3,211.3 109.5,209.5Z" style="fill:rgb(247,236,20);fill-rule:nonzero;"/>
        </g>
        <g transform="matrix(0.741399,0,0,0.741399,66.2018,66.2018)">
            <path d="M281,256L281,-0.1L349.3,0.2L417.5,0.6L427,3.3C438.4,6.6 455,14.4 463.8,20.7C485.3,36 501.4,59.2 508.7,85.5L511.5,95.5L511.5,416.5L508.7,426.5C505.4,438.4 497.8,454.7 491.3,463.9C484.9,472.9 471,486.5 462.3,492.3C452.2,499 437.7,505.6 426.3,508.8L416.5,511.5L348.8,511.8L281,512.1L281,256ZM413,329C431.9,323.9 449.4,305.8 454.4,286.4C456.4,278.5 456.4,264.5 454.4,256.6C449.2,236.5 431.6,218.8 411.4,213.5C408.2,212.6 401.5,211.9 396.5,211.9C391.6,211.9 384.8,212.6 381.6,213.5C361.5,218.8 343.7,236.6 338.5,256.6C336.6,264.1 336.6,278.9 338.5,286.4C343.6,305.8 361.2,323.9 380,329C390,331.8 402.9,331.8 413,329Z" style="fill:rgb(247,236,20);fill-rule:nonzero;"/>
        </g>
    </g>
</svg>
