<?xml version="1.0" encoding="UTF-8" standalone="no"?>
<!DOCTYPE svg PUBLIC "-//W3C//DTD SVG 1.1//EN" "http://www.w3.org/Graphics/SVG/1.1/DTD/svg11.dtd">
<svg width="100%" height="100%" viewBox="0 0 1200 974" version="1.1" xmlns="http://www.w3.org/2000/svg" xmlns:xlink="http://www.w3.org/1999/xlink" xml:space="preserve" xmlns:serif="http://www.serif.com/" style="fill-rule:evenodd;clip-rule:evenodd;stroke-linejoin:round;stroke-miterlimit:1.41421;">
    <g transform="matrix(1,0,0,1,-0.0496482,0.14853)">
        <g transform="matrix(0.870253,0,0,0.870253,77.8468,63.1103)">
            <path d="M459,971.9C333.1,964.1 218.2,929 133.5,872.5C56.4,821 11,755.8 1.4,682.6C-1,664.2 -0.1,628.4 3.3,608.9C15.7,538.3 52.4,464.6 112.2,389.8C220.5,254.5 369.3,152.3 478.3,138.4C497.1,136 519.8,136.8 533.5,140.4C562.7,148 582.3,165.1 591.9,191.7C601.9,218.8 600.8,252.1 588.8,296.8C584.7,311.6 584.7,312.1 586.3,315.4C588.3,319.8 592.9,321.2 600.3,320C605.5,319.2 608.3,318.2 637.5,307C672,293.8 710.5,283.7 745,278.8C759.8,276.8 804,277.1 815.9,279.3C858.3,287.4 884.3,307.9 894.7,341.5C897.3,350 897.4,351.6 897.4,369.5C897.4,392.6 896,400.3 886.4,428.7C882.9,439.3 880,449.1 880,450.5C880,454.2 882.5,458.5 885.9,461C887.6,462.1 896.8,465.7 906.5,469C946.7,482.6 976.7,500 1001.3,523.9C1027.4,549.2 1042.5,578.6 1047.1,612.7C1048.8,625.5 1047.8,651.9 1045,665.5C1035.6,712.6 1006.7,761.9 962.9,805.9C873.5,895.5 734.7,955.1 582,969.5C545.1,972.9 492.1,974 459,971.9ZM413,903C312.1,894.8 228.9,861.6 175.5,808.5C153.1,786.2 137.1,761.2 128.6,735.5C100.1,648.4 148.2,555.7 254.8,492.7C308.8,460.7 379.4,437.9 448.7,430C547.2,418.8 641.1,433.4 715.9,471.5C767.3,497.7 803.6,531.6 824,572.5C834.2,593 838.7,608.1 841.1,630.2C843.4,650.5 840.1,678.1 833,698.6C828.9,710.5 817.5,733.4 810.3,744.5C792.8,771.3 765,799.1 734.2,820.7C670.7,865.2 590.9,893 500.5,902C486.3,903.4 426.6,904.1 413,903Z" style="fill:rgb(247,236,20);"/>
        </g>
        <g transform="matrix(0.870253,0,0,0.870253,77.8468,63.1103)">
            <path d="M1130,446.3C1109.2,440.6 1095.9,423.1 1095.9,401.5C1095.9,395.4 1096.8,390.6 1099.5,381C1121.3,304.3 1103.1,225.3 1049.8,166.3C1010.9,123.1 958.2,97.6 898.2,92.9C881.6,91.6 860.9,92.7 845.5,95.6C834.1,97.8 822.2,98.4 816.1,97.1C795.2,92.6 780.1,73.6 780,52C780,34.1 789.8,18.1 805.4,10.5C823.6,1.7 880.2,-2.8 919,1.5C992.6,9.7 1059.1,42.4 1111,95.7C1125.3,110.3 1130.4,116.3 1141.4,131.4C1167.5,167.2 1186.1,209.3 1195,253C1199.9,277 1200.2,281.8 1199.8,322.6C1199.4,358.9 1199.3,361.1 1196.7,374.5C1193.7,389.8 1188.4,410.3 1185.1,419C1180.8,430.5 1168.6,441.9 1156.6,445.6C1148.6,448 1137.6,448.3 1130,446.3Z" style="fill:rgb(247,236,20);fill-rule:nonzero;"/>
        </g>
        <g transform="matrix(0.870253,0,0,0.870253,77.8468,63.1103)">
            <path d="M986.2,392.9C978.5,391.9 969.1,386.9 963.6,381C953.4,370.1 950.6,356.2 955.1,339.3C958.5,326.8 958.5,307.8 955.2,297C948.9,276.7 934.9,260.1 916.5,251C903.7,244.8 897.7,243.5 882,243.9C846.8,244.7 848.1,244.7 841.5,241.6C833.6,237.7 826.6,230.6 822.7,222.2C819.8,216.1 819.5,214.7 819.5,205.4C819.5,195.8 819.7,195.1 823.3,187.8C831.9,170.3 844.9,164.5 878,163.3C908.2,162.3 933.1,168.1 958.6,182.1C995,202.2 1022.8,237.8 1033,277.5C1037.5,294.6 1038.3,303.1 1037.7,323.4C1037.1,342.2 1034.9,355.4 1030.2,367.7C1023.4,385.4 1005.6,395.7 986.2,392.9Z" style="fill:rgb(247,236,20);fill-rule:nonzero;"/>
        </g>
        <g transform="matrix(0.870253,0,0,0.870253,77.8468,63.1103)">
            <path d="M373,780.5C362.5,778.1 352.4,772.6 345,765.1C337.6,757.6 333.6,750.2 331.4,740.2C329.7,731.7 329.7,727.2 331.5,718.5C338,687.7 367.4,663.9 401,662.3C420.6,661.4 434.5,666.3 446.6,678.4C454.7,686.6 458.4,693.4 460.7,704.9C467,735.6 442.1,769.8 406.5,779.4C397.8,781.8 381,782.3 373,780.5Z" style="fill:rgb(247,236,20);fill-rule:nonzero;"/>
        </g>
        <g transform="matrix(0.870253,0,0,0.870253,77.8468,63.1103)">
            <path d="M485.5,679.1C467,674.4 463.6,653.9 479.1,640.6C492.9,628.8 514.2,633.3 518,648.8C521.4,663 509.5,677.4 493,679.4C490.5,679.6 487.2,679.5 485.5,679.1Z" style="fill:rgb(247,236,20);fill-rule:nonzero;"/>
        </g>
    </g>
</svg>
